<svg width="22" height="22" viewBox="0 0 22 22" fill="none" xmlns="http://www.w3.org/2000/svg">
    <path d="M18.8077 3H4.19231C2.98153 3 2 4.03789 2 5.31818V17.6818C2 18.9621 2.98153 20 4.19231 20H18.8077C20.0185 20 21 18.9621 21 17.6818V5.31818C21 4.03789 20.0185 3 18.8077 3Z" fill="#F5BF76" stroke="#F5BF76" stroke-linejoin="round"/>
    <path d="M15.5 10C16.3284 10 17 9.10457 17 8C17 6.89543 16.3284 6 15.5 6C14.6716 6 14 6.89543 14 8C14 9.10457 14.6716 10 15.5 10Z" fill="white" stroke="#F5BF76" stroke-miterlimit="10"/>
    <path d="M13.6923 15.5838L9.55159 11.4301C9.2881 11.1654 8.93395 11.0117 8.56153 11.0006C8.18911 10.9896 7.82653 11.1218 7.54791 11.3704L2 16.3278M10.0385 20L15.6718 14.3385C15.9294 14.079 16.2742 13.9258 16.6385 13.9088C17.0029 13.8918 17.3603 14.0123 17.6407 14.2466L21 17.0623" stroke="white" stroke-linecap="round" stroke-linejoin="round"/>
</svg>
