<svg width="22" height="22" viewBox="0 0 22 22" fill="none" xmlns="http://www.w3.org/2000/svg">
    <path d="M18.4983 15.3394C17.847 14.6831 16.2695 13.7254 15.5041 13.3394C14.5075 12.8374 14.4254 12.7964 13.642 13.3784C13.1195 13.7668 12.7721 14.1138 12.1605 13.9834C11.549 13.853 10.2201 13.1175 9.05648 11.9576C7.89287 10.7977 7.11481 9.43024 6.98397 8.82075C6.85313 8.21126 7.20586 7.86796 7.59059 7.34419C8.13281 6.60591 8.0918 6.48286 7.62832 5.48618C7.26697 4.71099 6.28137 3.14829 5.62266 2.50024C4.91801 1.80421 4.91801 1.92725 4.46397 2.11593C4.09432 2.27145 3.7397 2.4605 3.40453 2.68071C2.74828 3.11671 2.38406 3.47888 2.12936 4.02315C1.87465 4.56743 1.76022 5.84343 3.07559 8.233C4.39096 10.6226 5.31381 11.8444 7.22391 13.7492C9.134 15.654 10.6028 16.6781 12.7499 17.8823C15.4061 19.37 16.4249 19.08 16.9709 18.8257C17.5168 18.5714 17.8806 18.2105 18.3174 17.5542C18.5382 17.2196 18.7277 16.8654 18.8834 16.496C19.0725 16.0436 19.1955 16.0436 18.4983 15.3394Z" fill="#F5BF76" stroke="#F5BF76" stroke-miterlimit="10"/>
</svg>
