<svg width="22" height="22" viewBox="0 0 22 22" fill="none" xmlns="http://www.w3.org/2000/svg">
    <path d="M11.2388 4.35219C11.1748 4.29099 11.0897 4.25684 11.0012 4.25684C10.9127 4.25684 10.8275 4.29099 10.7636 4.35219L2.85303 11.9091C2.81943 11.9412 2.79271 11.9799 2.77446 12.0226C2.75622 12.0654 2.74684 12.1114 2.74689 12.1579L2.74561 19.2503C2.74561 19.615 2.89047 19.9647 3.14833 20.2226C3.4062 20.4804 3.75593 20.6253 4.12061 20.6253H8.2499C8.43224 20.6253 8.60711 20.5529 8.73604 20.4239C8.86497 20.295 8.9374 20.1201 8.9374 19.9378V14.0941C8.9374 14.0029 8.97362 13.9155 9.03808 13.851C9.10255 13.7865 9.18998 13.7503 9.28115 13.7503H12.7187C12.8098 13.7503 12.8973 13.7865 12.9617 13.851C13.0262 13.9155 13.0624 14.0029 13.0624 14.0941V19.9378C13.0624 20.1201 13.1348 20.295 13.2638 20.4239C13.3927 20.5529 13.5676 20.6253 13.7499 20.6253H17.8775C18.2422 20.6253 18.5919 20.4804 18.8498 20.2226C19.1076 19.9647 19.2525 19.615 19.2525 19.2503V12.1579C19.2525 12.1114 19.2432 12.0654 19.2249 12.0226C19.2067 11.9799 19.1799 11.9412 19.1463 11.9091L11.2388 4.35219Z" fill="#F5BF76"/>
    <path d="M21.0938 10.4908L17.8797 7.41598V2.75C17.8797 2.56766 17.8073 2.3928 17.6784 2.26386C17.5494 2.13493 17.3746 2.0625 17.1922 2.0625H15.1297C14.9474 2.0625 14.7725 2.13493 14.6436 2.26386C14.5147 2.3928 14.4422 2.56766 14.4422 2.75V4.125L11.9535 1.74539C11.7206 1.50992 11.3743 1.375 11 1.375C10.627 1.375 10.2816 1.50992 10.0487 1.74582L0.909235 10.49C0.641969 10.7478 0.608454 11.1719 0.851657 11.4512C0.912729 11.5217 0.987507 11.579 1.07144 11.6197C1.15538 11.6604 1.24671 11.6835 1.33989 11.6878C1.43306 11.6921 1.52613 11.6773 1.61343 11.6445C1.70072 11.6116 1.78042 11.5613 1.84767 11.4967L10.7637 2.97687C10.8277 2.91568 10.9128 2.88152 11.0013 2.88152C11.0898 2.88152 11.1749 2.91568 11.2389 2.97687L20.1558 11.4967C20.2871 11.6227 20.4631 11.6914 20.645 11.6879C20.827 11.6843 21.0001 11.6088 21.1265 11.4778C21.3903 11.2045 21.3684 10.7534 21.0938 10.4908Z" fill="#F5BF76"/>
</svg>
