<svg width="128" height="63" viewBox="0 0 128 63" fill="none" xmlns="http://www.w3.org/2000/svg">
    <path d="M39.266 49.2529C38.0629 49.2529 37.2551 48.0287 37.7179 46.9223C40.9824 39.1101 41.8196 32.4085 41.8196 25.362V18.2944C41.8196 17.3646 41.0666 16.6116 40.1369 16.6116H8.83754C7.90782 16.6116 7.15479 15.8586 7.15479 14.9289C7.15479 13.9991 7.90782 13.2461 8.83754 13.2461H53.9144C56.5269 13.2461 58.6472 15.3664 58.6472 17.9789V24.5206C58.6472 36.0853 57.4651 42.1306 52.5093 48.6093C52.1938 49.0215 51.7016 49.2571 51.18 49.2571H39.2702L39.266 49.2529Z" fill="white"/>
    <path d="M66.6825 19.4808C66.6825 17.5456 65.9252 16.5359 63.317 16.5359H62.4756V13.1704H108.865C112.777 13.1704 115.684 16.7925 114.835 20.6124L110.695 39.2363C110.502 40.0988 110.788 40.999 111.448 41.588C112.984 42.9679 115.684 44.5497 114.641 44.5497H107.91C105.638 44.5497 104.376 45.0545 102.862 45.8959L100.674 47.1579C97.477 49.009 90.3252 50.0186 80.8177 50.0186H79.1349C70.1321 50.0186 66.6825 46.0641 66.6825 40.5952V19.4765V19.4808ZM88.7224 45.8159C94.7803 45.8159 99.5299 43.0141 99.5299 40.6583L99.6603 16.5359H86.4044C84.8058 16.5359 83.5059 17.8317 83.5059 19.4345V39.6739C83.5059 43.4601 83.59 45.8159 87.0397 45.8159H88.7224Z" fill="white"/>
    <path d="M122.23 1H5.55607C3.03982 1 1 3.03982 1 5.55607V57.4439C1 59.9602 3.03982 62 5.55607 62H122.23C124.746 62 126.786 59.9602 126.786 57.4439V5.55607C126.786 3.03982 124.746 1 122.23 1Z" stroke="white" stroke-miterlimit="10"/>
</svg>
